<svg xmlns="http://www.w3.org/2000/svg" xmlns:xlink="http://www.w3.org/1999/xlink" fill="none" version="1.1" width="32"
    height="32" viewBox="0 0 32 32">
    <path
        d="M21.8915,30.8758Q19.053,32,16,32Q12.947,32,10.1085,30.8758Q7.02718,29.6555,4.68413,27.3116Q2.34179,24.9683,1.12262,21.8876Q0,19.0508,0,16Q0,12.9492,1.12262,10.1124Q2.34178,7.03169,4.68413,4.68844Q7.02718,2.3445,10.1085,1.12416Q12.947,0,16,0Q19.053,0,21.8915,1.12416Q24.9728,2.34452,27.3159,4.68844Q29.6582,7.0317,30.8774,10.1124Q32,12.9492,32,16Q32,19.0508,30.8774,21.8876Q29.6582,24.9683,27.3159,27.3116Q24.9729,29.6555,21.8915,30.8758ZM20.9831,3.39672Q18.5822,2.44582,16,2.44582Q13.4179,2.44582,11.0169,3.39672Q8.40927,4.42944,6.42587,6.4136Q4.44175,8.39848,3.40872,11.0089Q2.45708,13.4136,2.45708,16Q2.45708,18.5864,3.40872,20.9911Q4.44174,23.6015,6.42587,25.5864Q8.40926,27.5706,11.0169,28.6033Q13.4179,29.5542,16,29.5542Q18.5821,29.5542,20.9831,28.6033Q23.5907,27.5706,25.5741,25.5864Q27.5582,23.6015,28.5913,20.9911Q29.5429,18.5865,29.5429,16Q29.5429,13.4136,28.5913,11.0089Q27.5582,8.39847,25.5741,6.4136Q23.5907,4.42943,20.9831,3.39672Z"
        fill-rule="evenodd" fill-opacity="0.75" />
    <path
        d="M31.359879509277345,3.989615514297485Q30.176109509277342,2.388615514297485,28.670109509277346,1.0751035142974854Q28.275579509277343,0.7309839142974853,27.753179509277345,0.7763879142974853Q27.247868509277342,0.8203073142974854,26.921013509277344,1.2062715142974854Q26.591856009277343,1.5949545142974855,26.636682489277344,2.101455514297485Q26.679971009277345,2.5905855142974854,27.051302509277345,2.914445514297485Q28.356219509277345,4.052615514297486,29.381029509277344,5.438735514297485Q29.790209509277343,5.992175514297485,30.477809509277343,5.932415514297485Q30.983119509277344,5.888495514297485,31.309979509277344,5.502525514297485Q31.639139509277342,5.113845514297485,31.594309509277345,4.607345514297485Q31.564089509277345,4.265885514297485,31.359879509277345,3.989615514297485Z"
        fill-rule="evenodd" fill-opacity="0.5" />
    <path
        d="M16.000156568908693,28.443986374282836Q16.30565656890869,28.443986374282836,16.61085656890869,28.428986374282836Q16.91595656890869,28.413986374282835,17.219956568908692,28.384086374282838Q17.52395656890869,28.354086374282836,17.826156568908694,28.309286374282838Q18.128356568908693,28.264486374282836,18.42795656890869,28.204886374282836Q18.727656568908692,28.145286374282836,19.02395656890869,28.070986374282835Q19.32025656890869,27.996786374282838,19.61265656890869,27.90808637428284Q19.90495656890869,27.819486374282835,20.192656568908692,27.716486374282837Q20.48025656890869,27.613586374282836,20.762456568908693,27.496686374282838Q21.044756568908692,27.379786374282837,21.32085656890869,27.249186374282836Q21.59705656890869,27.118586374282838,21.866456568908692,26.974586374282836Q22.135856568908693,26.830586374282838,22.39795656890869,26.673486374282838Q22.65995656890869,26.51638637428284,22.91395656890869,26.346686374282836Q23.167956568908693,26.176986374282837,23.413356568908693,25.99498637428284Q23.658756568908693,25.812986374282836,23.89485656890869,25.619186374282837Q24.13105656890869,25.425386374282837,24.357356568908692,25.220286374282836Q24.58375656890869,25.015086374282838,24.79975656890869,24.799086374282837Q25.015756568908692,24.583086374282836,25.22095656890869,24.356686374282837Q25.42605656890869,24.130386374282836,25.61985656890869,23.894186374282835Q25.81365656890869,23.65808637428284,25.995656568908693,23.41268637428284Q26.17765656890869,23.16728637428284,26.34735656890869,22.913286374282837Q26.517056568908693,22.659286374282836,26.674156568908693,22.397286374282835Q26.831256568908692,22.13518637428284,26.97525656890869,21.865786374282838Q27.119256568908693,21.596386374282837,27.24985656890869,21.320186374282837Q27.38045656890869,21.044086374282838,27.497356568908693,20.76178637428284Q27.61425656890869,20.479586374282835,27.717156568908692,20.191986374282838Q27.82015656890869,19.904286374282837,27.908756568908693,19.611986374282836Q27.997456568908692,19.319586374282835,28.07165656890869,19.023286374282836Q28.14595656890869,18.726986374282838,28.20555656890869,18.427286374282836Q28.26515656890869,18.12768637428284,28.309956568908692,17.82548637428284Q28.35475656890869,17.523286374282836,28.384756568908692,17.219286374282838Q28.41465656890869,16.915286374282836,28.42965656890869,16.610186374282836Q28.44465656890869,16.304986374282837,28.44465656890869,15.999486374282837Q28.44465656890869,15.694086374282836,28.42965656890869,15.388886374282837Q28.41465656890869,15.083786374282838,28.384756568908692,14.779786374282837Q28.35475656890869,14.475786374282837,28.309956568908692,14.173586374282836Q28.26515656890869,13.871386374282837,28.20555656890869,13.571786374282837Q28.14595656890869,13.272116374282836,28.07165656890869,12.975776374282837Q27.997456568908692,12.679436374282837,27.908756568908693,12.387096374282837Q27.82015656890869,12.094756374282836,27.717156568908692,11.807126374282836Q27.61425656890869,11.519486374282838,27.497356568908693,11.237246374282837Q27.38045656890869,10.955006374282837,27.24985656890869,10.678846374282838Q27.119256568908693,10.402676374282837,26.97525656890869,10.133256374282837Q26.831256568908692,9.863836374282837,26.674156568908693,9.601806374282837Q26.517056568908693,9.339776374282838,26.34735656890869,9.085766374282837Q26.17765656890869,8.831756374282836,25.995656568908693,8.586386374282837Q25.81365656890869,8.341006374282838,25.61985656890869,8.104856374282836Q25.42605656890869,7.868706374282837,25.22095656890869,7.642356374282837Q25.015756568908692,7.415996374282837,24.79975656890869,7.199976374282837Q24.58375656890869,6.983966374282836,24.357356568908692,6.778806374282837Q24.13105656890869,6.573646374282837,23.89485656890869,6.379846374282836Q23.658756568908693,6.186046374282837,23.413356568908693,6.004056374282837Q23.167956568908693,5.822076374282837,22.91395656890869,5.652356374282837Q22.65995656890869,5.482626374282837,22.39795656890869,5.325576374282837Q22.135856568908693,5.168516374282837,21.866456568908692,5.024506374282836Q21.59705656890869,4.880506374282837,21.32085656890869,4.749886374282837Q21.044756568908692,4.619266374282837,20.762456568908693,4.502363374282837Q20.48025656890869,4.385455374282837,20.192656568908692,4.282537374282837Q19.90495656890869,4.179620374282837,19.61265656890869,4.090940374282837Q19.32025656890869,4.002259374282837,19.02395656890869,3.928030374282837Q18.727656568908692,3.853801374282837,18.42795656890869,3.794202374282837Q18.128356568908693,3.7346043742828368,17.826156568908694,3.6897783742828367Q17.52395656890869,3.644953374282837,17.219956568908692,3.615009774282837Q16.91595656890869,3.585066074282837,16.61085656890869,3.5700762742828367Q16.30565656890869,3.555086374282837,16.000156568908693,3.555086374282837Q15.69475656890869,3.555086374282837,15.389556568908692,3.5700762742828367Q15.084456568908692,3.585066074282837,14.780456568908692,3.615009774282837Q14.476456568908691,3.644953374282837,14.17425656890869,3.6897783742828367Q13.872056568908691,3.7346043742828368,13.572456568908692,3.794202374282837Q13.27278656890869,3.853801374282837,12.976446568908692,3.928030374282837Q12.680106568908691,4.002259374282837,12.387766568908692,4.090940374282837Q12.09542656890869,4.179620374282837,11.80779656890869,4.282537374282837Q11.520156568908693,4.385455374282837,11.237916568908691,4.502363374282837Q10.955676568908691,4.619266374282837,10.679516568908692,4.749886374282837Q10.403346568908692,4.880506374282837,10.133926568908691,5.024506374282836Q9.864506568908691,5.168516374282837,9.602476568908692,5.325576374282837Q9.340446568908693,5.482626374282837,9.086436568908692,5.652356374282837Q8.83242656890869,5.822076374282837,8.587056568908691,6.004056374282837Q8.341676568908692,6.186046374282837,8.10552656890869,6.379846374282836Q7.869376568908692,6.573646374282837,7.643026568908692,6.778806374282837Q7.416666568908692,6.983966374282836,7.200646568908692,7.199976374282837Q6.984636568908691,7.415996374282837,6.7794765689086915,7.642356374282837Q6.574316568908691,7.868706374282837,6.380516568908691,8.104856374282836Q6.186716568908691,8.341006374282838,6.0047265689086915,8.586386374282837Q5.822746568908691,8.831756374282836,5.653026568908691,9.085766374282837Q5.483296568908692,9.339776374282838,5.326246568908691,9.601806374282837Q5.1691865689086915,9.863836374282837,5.025176568908691,10.133256374282837Q4.881176568908692,10.402676374282837,4.750556568908691,10.678846374282838Q4.619936568908692,10.955006374282837,4.503033568908691,11.237246374282837Q4.3861255689086915,11.519486374282838,4.283207568908692,11.807126374282836Q4.180290568908691,12.094756374282836,4.091610568908692,12.387096374282837Q4.002929568908692,12.679436374282837,3.9287005689086913,12.975776374282837Q3.8544715689086915,13.272116374282836,3.7948725689086915,13.571786374282837Q3.7352745689086913,13.871386374282837,3.690448568908691,14.173586374282836Q3.6456235689086913,14.475786374282837,3.6156799689086916,14.779786374282837Q3.5857362689086916,15.083786374282838,3.570746468908691,15.388886374282837Q3.5557565689086914,15.694086374282836,3.5557565689086914,15.999486374282837Q3.5557565689086914,16.304986374282837,3.570746468908691,16.610186374282836Q3.5857362689086916,16.915286374282836,3.6156799689086916,17.219286374282838Q3.6456235689086913,17.523286374282836,3.690448568908691,17.82548637428284Q3.7352745689086913,18.12768637428284,3.7948725689086915,18.427286374282836Q3.8544715689086915,18.726986374282838,3.9287005689086913,19.023286374282836Q4.002929568908692,19.319586374282835,4.091610568908692,19.611986374282836Q4.180290568908691,19.904286374282837,4.283207568908692,20.191986374282838Q4.3861255689086915,20.479586374282835,4.503033568908691,20.76178637428284Q4.619936568908692,21.044086374282838,4.750556568908691,21.320186374282837Q4.881176568908692,21.596386374282837,5.025176568908691,21.865786374282838Q5.1691865689086915,22.13518637428284,5.326246568908691,22.397286374282835Q5.483296568908692,22.659286374282836,5.653026568908691,22.913286374282837Q5.822746568908691,23.16728637428284,6.0047265689086915,23.41268637428284Q6.186716568908691,23.65808637428284,6.380516568908691,23.894186374282835Q6.574316568908691,24.130386374282836,6.7794765689086915,24.356686374282837Q6.984636568908691,24.583086374282836,7.200646568908692,24.799086374282837Q7.416666568908692,25.015086374282838,7.643026568908692,25.220286374282836Q7.869376568908692,25.425386374282837,8.10552656890869,25.619186374282837Q8.341676568908692,25.812986374282836,8.587056568908691,25.99498637428284Q8.83242656890869,26.176986374282837,9.086436568908692,26.346686374282836Q9.340446568908693,26.51638637428284,9.602476568908692,26.673486374282838Q9.864506568908691,26.830586374282838,10.133926568908691,26.974586374282836Q10.403346568908692,27.118586374282838,10.679516568908692,27.249186374282836Q10.955676568908691,27.379786374282837,11.237916568908691,27.496686374282838Q11.520156568908693,27.613586374282836,11.80779656890869,27.716486374282837Q12.09542656890869,27.819486374282835,12.387766568908692,27.90808637428284Q12.680106568908691,27.996786374282838,12.976446568908692,28.070986374282835Q13.27278656890869,28.145286374282836,13.572456568908692,28.204886374282836Q13.872056568908691,28.264486374282836,14.17425656890869,28.309286374282838Q14.476456568908691,28.354086374282836,14.780456568908692,28.384086374282838Q15.084456568908692,28.413986374282835,15.389556568908692,28.428986374282836Q15.69475656890869,28.443986374282836,16.000156568908693,28.443986374282836ZM8.962016568908691,16.73558637428284C8.105496568908691,16.602986374282835,7.910246568908692,16.305086374282837,7.910246568908692,15.999186374282838C7.910246568908692,15.693386374282836,8.105496568908691,15.395386374282836,8.962016568908691,15.262886374282838Q11.842356568908691,14.857486374282837,13.31159656890869,13.396476374282837Q14.78085656890869,11.935446374282837,15.188456568908691,9.071196374282838C15.321756568908691,8.219466374282838,15.621356568908691,8.025296374282837,15.928956568908692,8.025296374282837C16.23655656890869,8.025296374282837,16.47795656890869,8.219466374282838,16.669456568908693,9.071196374282838Q17.07705656890869,11.935446374282837,18.546356568908692,13.396476374282837Q20.015556568908693,14.857486374282837,22.95415656890869,15.262886374282838C23.754956568908693,15.439986374282837,23.94765656890869,15.693386374282836,23.94765656890869,15.999186374282838C23.94765656890869,16.305086374282837,23.81325656890869,16.59858637428284,22.95415656890869,16.73558637428284Q20.015556568908693,17.140886374282836,18.546356568908692,18.601986374282838Q17.07705656890869,20.062986374282836,16.669456568908693,22.869286374282837C16.53615656890869,23.721086374282837,16.23655656890869,23.973086374282836,15.928956568908692,23.973086374282836C15.621356568908691,23.973086374282836,15.321756568908691,23.721086374282837,15.188456568908691,22.869286374282837Q14.78085656890869,20.062986374282836,13.31159656890869,18.601986374282838Q11.842356568908691,17.140886374282836,8.962016568908691,16.73558637428284Z"
        fill-rule="evenodd" fill-opacity="1" />
    <style>
        path {
            fill: #000;
        }

        @media (prefers-color-scheme: dark) {
            path {
                fill: #FFF;
            }
        }
    </style>
</svg>